<?xml version="1.0" encoding="UTF-8" standalone="no"?>
<!DOCTYPE svg PUBLIC "-//W3C//DTD SVG 1.1//EN"
 "http://www.w3.org/Graphics/SVG/1.1/DTD/svg11.dtd">
<!-- Generated by graphviz version 2.38.0 (20140413.2041)
 -->
<!-- Title: G Pages: 1 -->
<svg width="1088pt" height="2730pt"
 viewBox="0.00 0.00 1088.04 2730.00" xmlns="http://www.w3.org/2000/svg" xmlns:xlink="http://www.w3.org/1999/xlink">
<g id="graph0" class="graph" transform="scale(1 1) rotate(0) translate(4 2726)">
<title>G</title>
<polygon fill="white" stroke="none" points="-4,4 -4,-2726 1084.04,-2726 1084.04,4 -4,4"/>
<g id="clust1" class="cluster"><title>cluster_Global</title>
<path fill="none" stroke="gray" d="M490.307,-692C490.307,-692 1060.04,-692 1060.04,-692 1066.04,-692 1072.04,-698 1072.04,-704 1072.04,-704 1072.04,-2702 1072.04,-2702 1072.04,-2708 1066.04,-2714 1060.04,-2714 1060.04,-2714 490.307,-2714 490.307,-2714 484.307,-2714 478.307,-2708 478.307,-2702 478.307,-2702 478.307,-704 478.307,-704 478.307,-698 484.307,-692 490.307,-692"/>
<text text-anchor="middle" x="775.172" y="-2701.2" font-family="Times New Roman,serif" font-size="11.00" fill="gray">Global</text>
</g>
<g id="clust2" class="cluster"><title>cluster_\starcrew</title>
<path fill="none" stroke="gray" d="M498.307,-700C498.307,-700 1052.04,-700 1052.04,-700 1058.04,-700 1064.04,-706 1064.04,-712 1064.04,-712 1064.04,-2674 1064.04,-2674 1064.04,-2680 1058.04,-2686 1052.04,-2686 1052.04,-2686 498.307,-2686 498.307,-2686 492.307,-2686 486.307,-2680 486.307,-2674 486.307,-2674 486.307,-712 486.307,-712 486.307,-706 492.307,-700 498.307,-700"/>
<text text-anchor="middle" x="775.172" y="-2673.2" font-family="Times New Roman,serif" font-size="11.00" fill="gray">starcrew</text>
</g>
<g id="clust3" class="cluster"><title>cluster_\starcrew\Providers</title>
<path fill="none" stroke="gray" d="M882.036,-1588C882.036,-1588 1026.04,-1588 1026.04,-1588 1032.04,-1588 1038.04,-1594 1038.04,-1600 1038.04,-1600 1038.04,-1810 1038.04,-1810 1038.04,-1816 1032.04,-1822 1026.04,-1822 1026.04,-1822 882.036,-1822 882.036,-1822 876.036,-1822 870.036,-1816 870.036,-1810 870.036,-1810 870.036,-1600 870.036,-1600 870.036,-1594 876.036,-1588 882.036,-1588"/>
<text text-anchor="middle" x="954.036" y="-1809.2" font-family="Times New Roman,serif" font-size="11.00" fill="gray">Providers</text>
</g>
<g id="clust4" class="cluster"><title>cluster_\starcrew\Http</title>
<path fill="none" stroke="gray" d="M506.307,-1830C506.307,-1830 1044.04,-1830 1044.04,-1830 1050.04,-1830 1056.04,-1836 1056.04,-1842 1056.04,-1842 1056.04,-2646 1056.04,-2646 1056.04,-2652 1050.04,-2658 1044.04,-2658 1044.04,-2658 506.307,-2658 506.307,-2658 500.307,-2658 494.307,-2652 494.307,-2646 494.307,-2646 494.307,-1842 494.307,-1842 494.307,-1836 500.307,-1830 506.307,-1830"/>
<text text-anchor="middle" x="775.172" y="-2645.2" font-family="Times New Roman,serif" font-size="11.00" fill="gray">Http</text>
</g>
<g id="clust5" class="cluster"><title>cluster_\starcrew\Http\Middleware</title>
<path fill="none" stroke="gray" d="M872.036,-1964C872.036,-1964 1036.04,-1964 1036.04,-1964 1042.04,-1964 1048.04,-1970 1048.04,-1976 1048.04,-1976 1048.04,-2186 1048.04,-2186 1048.04,-2192 1042.04,-2198 1036.04,-2198 1036.04,-2198 872.036,-2198 872.036,-2198 866.036,-2198 860.036,-2192 860.036,-2186 860.036,-2186 860.036,-1976 860.036,-1976 860.036,-1970 866.036,-1964 872.036,-1964"/>
<text text-anchor="middle" x="954.036" y="-2185.2" font-family="Times New Roman,serif" font-size="11.00" fill="gray">Middleware</text>
</g>
<g id="clust6" class="cluster"><title>cluster_\starcrew\Http\Controllers</title>
<path fill="none" stroke="gray" d="M514.307,-2206C514.307,-2206 1027.04,-2206 1027.04,-2206 1033.04,-2206 1039.04,-2212 1039.04,-2218 1039.04,-2218 1039.04,-2618 1039.04,-2618 1039.04,-2624 1033.04,-2630 1027.04,-2630 1027.04,-2630 514.307,-2630 514.307,-2630 508.307,-2630 502.307,-2624 502.307,-2618 502.307,-2618 502.307,-2218 502.307,-2218 502.307,-2212 508.307,-2206 514.307,-2206"/>
<text text-anchor="middle" x="770.672" y="-2617.2" font-family="Times New Roman,serif" font-size="11.00" fill="gray">Controllers</text>
</g>
<g id="clust7" class="cluster"><title>cluster_\starcrew\Http\Controllers\Auth</title>
<path fill="none" stroke="gray" d="M889.036,-2476C889.036,-2476 1019.04,-2476 1019.04,-2476 1025.04,-2476 1031.04,-2482 1031.04,-2488 1031.04,-2488 1031.04,-2590 1031.04,-2590 1031.04,-2596 1025.04,-2602 1019.04,-2602 1019.04,-2602 889.036,-2602 889.036,-2602 883.036,-2602 877.036,-2596 877.036,-2590 877.036,-2590 877.036,-2488 877.036,-2488 877.036,-2482 883.036,-2476 889.036,-2476"/>
<text text-anchor="middle" x="954.036" y="-2589.2" font-family="Times New Roman,serif" font-size="11.00" fill="gray">Auth</text>
</g>
<g id="clust8" class="cluster"><title>cluster_\starcrew\Http\Requests</title>
<path fill="none" stroke="gray" d="M916.036,-1884C916.036,-1884 992.036,-1884 992.036,-1884 998.036,-1884 1004.04,-1890 1004.04,-1896 1004.04,-1896 1004.04,-1944 1004.04,-1944 1004.04,-1950 998.036,-1956 992.036,-1956 992.036,-1956 916.036,-1956 916.036,-1956 910.036,-1956 904.036,-1950 904.036,-1944 904.036,-1944 904.036,-1896 904.036,-1896 904.036,-1890 910.036,-1884 916.036,-1884"/>
<text text-anchor="middle" x="954.036" y="-1943.2" font-family="Times New Roman,serif" font-size="11.00" fill="gray">Requests</text>
</g>
<g id="clust9" class="cluster"><title>cluster_\starcrew\Console</title>
<path fill="none" stroke="gray" d="M918.036,-1426C918.036,-1426 990.036,-1426 990.036,-1426 996.036,-1426 1002.04,-1432 1002.04,-1438 1002.04,-1438 1002.04,-1568 1002.04,-1568 1002.04,-1574 996.036,-1580 990.036,-1580 990.036,-1580 918.036,-1580 918.036,-1580 912.036,-1580 906.036,-1574 906.036,-1568 906.036,-1568 906.036,-1438 906.036,-1438 906.036,-1432 912.036,-1426 918.036,-1426"/>
<text text-anchor="middle" x="954.036" y="-1567.2" font-family="Times New Roman,serif" font-size="11.00" fill="gray">Console</text>
</g>
<g id="clust10" class="cluster"><title>cluster_\starcrew\Console\Commands</title>
<path fill="none" stroke="gray" d="M926.036,-1480C926.036,-1480 982.036,-1480 982.036,-1480 988.036,-1480 994.036,-1486 994.036,-1492 994.036,-1492 994.036,-1540 994.036,-1540 994.036,-1546 988.036,-1552 982.036,-1552 982.036,-1552 926.036,-1552 926.036,-1552 920.036,-1552 914.036,-1546 914.036,-1540 914.036,-1540 914.036,-1492 914.036,-1492 914.036,-1486 920.036,-1480 926.036,-1480"/>
<text text-anchor="middle" x="954.036" y="-1539.2" font-family="Times New Roman,serif" font-size="11.00" fill="gray">Commands</text>
</g>
<g id="clust11" class="cluster"><title>cluster_\starcrew\Jobs</title>
<path fill="none" stroke="gray" d="M916.036,-1346C916.036,-1346 992.036,-1346 992.036,-1346 998.036,-1346 1004.04,-1352 1004.04,-1358 1004.04,-1358 1004.04,-1406 1004.04,-1406 1004.04,-1412 998.036,-1418 992.036,-1418 992.036,-1418 916.036,-1418 916.036,-1418 910.036,-1418 904.036,-1412 904.036,-1406 904.036,-1406 904.036,-1358 904.036,-1358 904.036,-1352 910.036,-1346 916.036,-1346"/>
<text text-anchor="middle" x="954.036" y="-1405.2" font-family="Times New Roman,serif" font-size="11.00" fill="gray">Jobs</text>
</g>
<g id="clust13" class="cluster"><title>cluster_\starcrew\Exceptions</title>
<path fill="none" stroke="gray" d="M926.036,-1266C926.036,-1266 982.036,-1266 982.036,-1266 988.036,-1266 994.036,-1272 994.036,-1278 994.036,-1278 994.036,-1326 994.036,-1326 994.036,-1332 988.036,-1338 982.036,-1338 982.036,-1338 926.036,-1338 926.036,-1338 920.036,-1338 914.036,-1332 914.036,-1326 914.036,-1326 914.036,-1278 914.036,-1278 914.036,-1272 920.036,-1266 926.036,-1266"/>
<text text-anchor="middle" x="954.036" y="-1325.2" font-family="Times New Roman,serif" font-size="11.00" fill="gray">Exceptions</text>
</g>
<g id="clust12" class="cluster"><title>cluster_\starcrew\Events</title>
<path fill="none" stroke="gray" d="M916.036,-1186C916.036,-1186 992.036,-1186 992.036,-1186 998.036,-1186 1004.04,-1192 1004.04,-1198 1004.04,-1198 1004.04,-1246 1004.04,-1246 1004.04,-1252 998.036,-1258 992.036,-1258 992.036,-1258 916.036,-1258 916.036,-1258 910.036,-1258 904.036,-1252 904.036,-1246 904.036,-1246 904.036,-1198 904.036,-1198 904.036,-1192 910.036,-1186 916.036,-1186"/>
<text text-anchor="middle" x="954.036" y="-1245.2" font-family="Times New Roman,serif" font-size="11.00" fill="gray">Events</text>
</g>
<!-- \\starcrew\\Providers\\RouteServiceProvider -->
<g id="node1" class="node"><title>\\starcrew\\Providers\\RouteServiceProvider</title>
<polygon fill="none" stroke="black" points="1030.04,-1794 878.036,-1794 878.036,-1758 1030.04,-1758 1030.04,-1794"/>
<text text-anchor="middle" x="954.036" y="-1773.2" font-family="Courier,monospace" font-size="11.00">RouteServiceProvider</text>
</g>
<!-- \\Illuminate\\Foundation\\Support\\Providers\\RouteServiceProvider -->
<g id="node33" class="node"><title>\\Illuminate\\Foundation\\Support\\Providers\\RouteServiceProvider</title>
<ellipse fill="none" stroke="black" cx="552.307" cy="-450" rx="243.957" ry="18"/>
<text text-anchor="middle" x="552.307" y="-446.3" font-family="Times New Roman,serif" font-size="14.00" fill="gray">\Illuminate\Foundation\Support\Providers\RouteServiceProvider</text>
</g>
<!-- \\starcrew\\Providers\\RouteServiceProvider&#45;&gt;\\Illuminate\\Foundation\\Support\\Providers\\RouteServiceProvider -->
<g id="edge1" class="edge"><title>\\starcrew\\Providers\\RouteServiceProvider&#45;&gt;\\Illuminate\\Foundation\\Support\\Providers\\RouteServiceProvider</title>
<path fill="none" stroke="black" d="M877.651,-1763.55C870.91,-1759.82 864.834,-1755.07 860.036,-1749 772.241,-1638.01 893.027,-580.045 796.036,-477 791.363,-472.036 786.32,-467.589 780.972,-463.614"/>
<polygon fill="none" stroke="black" points="782.565,-460.465 772.325,-457.748 778.636,-466.258 782.565,-460.465"/>
</g>
<!-- \\starcrew\\Providers\\EventServiceProvider -->
<g id="node2" class="node"><title>\\starcrew\\Providers\\EventServiceProvider</title>
<polygon fill="none" stroke="black" points="1030.04,-1740 878.036,-1740 878.036,-1704 1030.04,-1704 1030.04,-1740"/>
<text text-anchor="middle" x="954.036" y="-1719.2" font-family="Courier,monospace" font-size="11.00">EventServiceProvider</text>
</g>
<!-- \\Illuminate\\Foundation\\Support\\Providers\\EventServiceProvider -->
<g id="node36" class="node"><title>\\Illuminate\\Foundation\\Support\\Providers\\EventServiceProvider</title>
<ellipse fill="none" stroke="black" cx="552.307" cy="-396" rx="242.357" ry="18"/>
<text text-anchor="middle" x="552.307" y="-392.3" font-family="Times New Roman,serif" font-size="14.00" fill="gray">\Illuminate\Foundation\Support\Providers\EventServiceProvider</text>
</g>
<!-- \\starcrew\\Providers\\EventServiceProvider&#45;&gt;\\Illuminate\\Foundation\\Support\\Providers\\EventServiceProvider -->
<g id="edge4" class="edge"><title>\\starcrew\\Providers\\EventServiceProvider&#45;&gt;\\Illuminate\\Foundation\\Support\\Providers\\EventServiceProvider</title>
<path fill="none" stroke="black" d="M877.651,-1709.55C870.91,-1705.82 864.834,-1701.07 860.036,-1695 772.241,-1584.01 893.027,-526.045 796.036,-423 791.363,-418.036 786.32,-413.589 780.972,-409.614"/>
<polygon fill="none" stroke="black" points="782.565,-406.465 772.325,-403.748 778.636,-412.258 782.565,-406.465"/>
</g>
<!-- \\starcrew\\Providers\\AppServiceProvider -->
<g id="node3" class="node"><title>\\starcrew\\Providers\\AppServiceProvider</title>
<polygon fill="none" stroke="black" points="1023.04,-1686 885.036,-1686 885.036,-1650 1023.04,-1650 1023.04,-1686"/>
<text text-anchor="middle" x="954.036" y="-1665.2" font-family="Courier,monospace" font-size="11.00">AppServiceProvider</text>
</g>
<!-- \\Illuminate\\Support\\ServiceProvider -->
<g id="node40" class="node"><title>\\Illuminate\\Support\\ServiceProvider</title>
<ellipse fill="none" stroke="black" cx="552.307" cy="-342" rx="140.275" ry="18"/>
<text text-anchor="middle" x="552.307" y="-338.3" font-family="Times New Roman,serif" font-size="14.00" fill="gray">\Illuminate\Support\ServiceProvider</text>
</g>
<!-- \\starcrew\\Providers\\AppServiceProvider&#45;&gt;\\Illuminate\\Support\\ServiceProvider -->
<g id="edge11" class="edge"><title>\\starcrew\\Providers\\AppServiceProvider&#45;&gt;\\Illuminate\\Support\\ServiceProvider</title>
<path fill="none" stroke="black" d="M884.9,-1659.07C875.292,-1654.97 866.503,-1649.18 860.036,-1641 772.241,-1530.01 893.027,-472.045 796.036,-369 757.541,-328.102 693.896,-322.3 641.434,-326.223"/>
<polygon fill="none" stroke="black" points="641.097,-322.739 631.44,-327.096 641.706,-329.712 641.097,-322.739"/>
</g>
<!-- \\starcrew\\Providers\\AuthServiceProvider -->
<g id="node4" class="node"><title>\\starcrew\\Providers\\AuthServiceProvider</title>
<polygon fill="none" stroke="black" points="1026.54,-1632 881.536,-1632 881.536,-1596 1026.54,-1596 1026.54,-1632"/>
<text text-anchor="middle" x="954.036" y="-1611.2" font-family="Courier,monospace" font-size="11.00">AuthServiceProvider</text>
</g>
<!-- \\Illuminate\\Foundation\\Support\\Providers\\AuthServiceProvider -->
<g id="node45" class="node"><title>\\Illuminate\\Foundation\\Support\\Providers\\AuthServiceProvider</title>
<ellipse fill="none" stroke="black" cx="552.307" cy="-288" rx="239.358" ry="18"/>
<text text-anchor="middle" x="552.307" y="-284.3" font-family="Times New Roman,serif" font-size="14.00" fill="gray">\Illuminate\Foundation\Support\Providers\AuthServiceProvider</text>
</g>
<!-- \\starcrew\\Providers\\AuthServiceProvider&#45;&gt;\\Illuminate\\Foundation\\Support\\Providers\\AuthServiceProvider -->
<g id="edge22" class="edge"><title>\\starcrew\\Providers\\AuthServiceProvider&#45;&gt;\\Illuminate\\Foundation\\Support\\Providers\\AuthServiceProvider</title>
<path fill="none" stroke="black" d="M905.697,-1595.76C888.312,-1586.55 870.37,-1573.54 860.036,-1556 789.957,-1437.03 890.733,-415.481 796.036,-315 791.102,-309.765 785.757,-305.106 780.076,-300.968"/>
<polygon fill="none" stroke="black" points="781.784,-297.901 771.52,-295.273 777.905,-303.728 781.784,-297.901"/>
</g>
<!-- \\starcrew\\Http\\Middleware\\RedirectIfAuthenticated -->
<g id="node5" class="node"><title>\\starcrew\\Http\\Middleware\\RedirectIfAuthenticated</title>
<polygon fill="none" stroke="black" points="1040.04,-2170 868.036,-2170 868.036,-2134 1040.04,-2134 1040.04,-2170"/>
<text text-anchor="middle" x="954.036" y="-2149.2" font-family="Courier,monospace" font-size="11.00">RedirectIfAuthenticated</text>
</g>
<!-- \\starcrew\\Http\\Middleware\\EncryptCookies -->
<g id="node6" class="node"><title>\\starcrew\\Http\\Middleware\\EncryptCookies</title>
<polygon fill="none" stroke="black" points="1009.54,-2116 898.536,-2116 898.536,-2080 1009.54,-2080 1009.54,-2116"/>
<text text-anchor="middle" x="954.036" y="-2095.2" font-family="Courier,monospace" font-size="11.00">EncryptCookies</text>
</g>
<!-- \\Illuminate\\Cookie\\Middleware\\EncryptCookies -->
<g id="node35" class="node"><title>\\Illuminate\\Cookie\\Middleware\\EncryptCookies</title>
<ellipse fill="none" stroke="black" cx="552.307" cy="-666" rx="182.768" ry="18"/>
<text text-anchor="middle" x="552.307" y="-662.3" font-family="Times New Roman,serif" font-size="14.00" fill="gray">\Illuminate\Cookie\Middleware\EncryptCookies</text>
</g>
<!-- \\starcrew\\Http\\Middleware\\EncryptCookies&#45;&gt;\\Illuminate\\Cookie\\Middleware\\EncryptCookies -->
<g id="edge3" class="edge"><title>\\starcrew\\Http\\Middleware\\EncryptCookies&#45;&gt;\\Illuminate\\Cookie\\Middleware\\EncryptCookies</title>
<path fill="none" stroke="black" d="M898.5,-2092.34C884.284,-2088.38 870.138,-2081.81 860.036,-2071 661.958,-1859.06 570.743,-874.158 555.6,-694.252"/>
<polygon fill="none" stroke="black" points="559.066,-693.7 554.748,-684.025 552.09,-694.281 559.066,-693.7"/>
</g>
<!-- \\starcrew\\Http\\Middleware\\VerifyCsrfToken -->
<g id="node7" class="node"><title>\\starcrew\\Http\\Middleware\\VerifyCsrfToken</title>
<polygon fill="none" stroke="black" points="1013.04,-2062 895.036,-2062 895.036,-2026 1013.04,-2026 1013.04,-2062"/>
<text text-anchor="middle" x="954.036" y="-2041.2" font-family="Courier,monospace" font-size="11.00">VerifyCsrfToken</text>
</g>
<!-- \\Illuminate\\Foundation\\Http\\Middleware\\VerifyCsrfToken -->
<g id="node37" class="node"><title>\\Illuminate\\Foundation\\Http\\Middleware\\VerifyCsrfToken</title>
<ellipse fill="none" stroke="black" cx="552.307" cy="-612" rx="219.861" ry="18"/>
<text text-anchor="middle" x="552.307" y="-608.3" font-family="Times New Roman,serif" font-size="14.00" fill="gray">\Illuminate\Foundation\Http\Middleware\VerifyCsrfToken</text>
</g>
<!-- \\starcrew\\Http\\Middleware\\VerifyCsrfToken&#45;&gt;\\Illuminate\\Foundation\\Http\\Middleware\\VerifyCsrfToken -->
<g id="edge5" class="edge"><title>\\starcrew\\Http\\Middleware\\VerifyCsrfToken&#45;&gt;\\Illuminate\\Foundation\\Http\\Middleware\\VerifyCsrfToken</title>
<path fill="none" stroke="black" d="M894.856,-2038.69C881.484,-2034.65 868.672,-2027.96 860.036,-2017 765.175,-1896.6 900.875,-750.814 796.036,-639 789.73,-632.275 782.745,-626.498 775.241,-621.555"/>
<polygon fill="none" stroke="black" points="776.578,-618.276 766.203,-616.13 772.976,-624.278 776.578,-618.276"/>
</g>
<!-- \\starcrew\\Http\\Middleware\\Authenticate -->
<g id="node8" class="node"><title>\\starcrew\\Http\\Middleware\\Authenticate</title>
<polygon fill="none" stroke="black" points="1003.04,-2008 905.036,-2008 905.036,-1972 1003.04,-1972 1003.04,-2008"/>
<text text-anchor="middle" x="954.036" y="-1987.2" font-family="Courier,monospace" font-size="11.00">Authenticate</text>
</g>
<!-- \\starcrew\\Http\\Controllers\\Auth\\PasswordController -->
<g id="node9" class="node"><title>\\starcrew\\Http\\Controllers\\Auth\\PasswordController</title>
<polygon fill="none" stroke="black" points="1023.04,-2574 885.036,-2574 885.036,-2538 1023.04,-2538 1023.04,-2574"/>
<text text-anchor="middle" x="954.036" y="-2553.2" font-family="Courier,monospace" font-size="11.00">PasswordController</text>
</g>
<!-- \\starcrew\\Http\\Controllers\\Controller -->
<g id="node12" class="node"><title>\\starcrew\\Http\\Controllers\\Controller</title>
<polygon fill="none" stroke="black" points="594.307,-2412 510.307,-2412 510.307,-2376 594.307,-2376 594.307,-2412"/>
<text text-anchor="middle" x="552.307" y="-2391.2" font-family="Courier,monospace" font-size="11.00">Controller</text>
</g>
<!-- \\starcrew\\Http\\Controllers\\Auth\\PasswordController&#45;&gt;\\starcrew\\Http\\Controllers\\Controller -->
<g id="edge8" class="edge"><title>\\starcrew\\Http\\Controllers\\Auth\\PasswordController&#45;&gt;\\starcrew\\Http\\Controllers\\Controller</title>
<path fill="none" stroke="black" d="M886.892,-2537.97C877.808,-2535.15 868.647,-2532.13 860.036,-2529 765.309,-2494.57 658.33,-2444.92 599.057,-2416.41"/>
<polygon fill="none" stroke="black" points="600.49,-2413.22 589.963,-2412.03 597.448,-2419.52 600.49,-2413.22"/>
</g>
<!-- \\starcrew\\Http\\Controllers\\Auth\\AuthController -->
<g id="node10" class="node"><title>\\starcrew\\Http\\Controllers\\Auth\\AuthController</title>
<polygon fill="none" stroke="black" points="1009.54,-2520 898.536,-2520 898.536,-2484 1009.54,-2484 1009.54,-2520"/>
<text text-anchor="middle" x="954.036" y="-2499.2" font-family="Courier,monospace" font-size="11.00">AuthController</text>
</g>
<!-- \\starcrew\\Http\\Controllers\\Auth\\AuthController&#45;&gt;\\starcrew\\Http\\Controllers\\Controller -->
<g id="edge10" class="edge"><title>\\starcrew\\Http\\Controllers\\Auth\\AuthController&#45;&gt;\\starcrew\\Http\\Controllers\\Controller</title>
<path fill="none" stroke="black" d="M898.358,-2489.46C885.747,-2486.46 872.405,-2483.2 860.036,-2480 769.495,-2456.61 664.746,-2426.6 604.057,-2408.92"/>
<polygon fill="none" stroke="black" points="604.921,-2405.52 594.341,-2406.08 602.96,-2412.24 604.921,-2405.52"/>
</g>
<!-- \\starcrew\\Http\\Controllers\\MissionController -->
<g id="node11" class="node"><title>\\starcrew\\Http\\Controllers\\MissionController</title>
<polygon fill="none" stroke="black" points="1019.54,-2466 888.536,-2466 888.536,-2430 1019.54,-2430 1019.54,-2466"/>
<text text-anchor="middle" x="954.036" y="-2445.2" font-family="Courier,monospace" font-size="11.00">MissionController</text>
</g>
<!-- \\starcrew\\Http\\Controllers\\MissionController&#45;&gt;\\starcrew\\Http\\Controllers\\Controller -->
<g id="edge6" class="edge"><title>\\starcrew\\Http\\Controllers\\MissionController&#45;&gt;\\starcrew\\Http\\Controllers\\Controller</title>
<path fill="none" stroke="black" d="M888.368,-2439.26C809.287,-2428.58 677.044,-2410.72 604.603,-2400.93"/>
<polygon fill="none" stroke="black" points="604.741,-2397.42 594.362,-2399.55 603.804,-2404.35 604.741,-2397.42"/>
</g>
<!-- \\Illuminate\\Routing\\Controller -->
<g id="node42" class="node"><title>\\Illuminate\\Routing\\Controller</title>
<ellipse fill="none" stroke="black" cx="118.29" cy="-2394" rx="118.079" ry="18"/>
<text text-anchor="middle" x="118.29" y="-2390.3" font-family="Times New Roman,serif" font-size="14.00" fill="gray">\Illuminate\Routing\Controller</text>
</g>
<!-- \\starcrew\\Http\\Controllers\\Controller&#45;&gt;\\Illuminate\\Routing\\Controller -->
<g id="edge15" class="edge"><title>\\starcrew\\Http\\Controllers\\Controller&#45;&gt;\\Illuminate\\Routing\\Controller</title>
<path fill="none" stroke="black" d="M510.275,-2394C450.447,-2394 336.66,-2394 247.202,-2394"/>
<polygon fill="none" stroke="black" points="246.971,-2390.5 236.971,-2394 246.971,-2397.5 246.971,-2390.5"/>
</g>
<!-- \\starcrew\\Http\\Controllers\\HomeController -->
<g id="node13" class="node"><title>\\starcrew\\Http\\Controllers\\HomeController</title>
<polygon fill="none" stroke="black" points="1009.54,-2412 898.536,-2412 898.536,-2376 1009.54,-2376 1009.54,-2412"/>
<text text-anchor="middle" x="954.036" y="-2391.2" font-family="Courier,monospace" font-size="11.00">HomeController</text>
</g>
<!-- \\starcrew\\Http\\Controllers\\HomeController&#45;&gt;\\starcrew\\Http\\Controllers\\Controller -->
<g id="edge16" class="edge"><title>\\starcrew\\Http\\Controllers\\HomeController&#45;&gt;\\starcrew\\Http\\Controllers\\Controller</title>
<path fill="none" stroke="black" d="M898.293,-2394C820.794,-2394 680.133,-2394 604.575,-2394"/>
<polygon fill="none" stroke="black" points="604.359,-2390.5 594.359,-2394 604.359,-2397.5 604.359,-2390.5"/>
</g>
<!-- \\starcrew\\Http\\Controllers\\CrewSlotController -->
<g id="node14" class="node"><title>\\starcrew\\Http\\Controllers\\CrewSlotController</title>
<polygon fill="none" stroke="black" points="1023.04,-2358 885.036,-2358 885.036,-2322 1023.04,-2322 1023.04,-2358"/>
<text text-anchor="middle" x="954.036" y="-2337.2" font-family="Courier,monospace" font-size="11.00">CrewSlotController</text>
</g>
<!-- \\starcrew\\Http\\Controllers\\CrewSlotController&#45;&gt;\\starcrew\\Http\\Controllers\\Controller -->
<g id="edge25" class="edge"><title>\\starcrew\\Http\\Controllers\\CrewSlotController&#45;&gt;\\starcrew\\Http\\Controllers\\Controller</title>
<path fill="none" stroke="black" d="M884.774,-2349.22C805.288,-2359.96 675.81,-2377.45 604.481,-2387.09"/>
<polygon fill="none" stroke="black" points="603.833,-2383.64 594.392,-2388.45 604.77,-2390.58 603.833,-2383.64"/>
</g>
<!-- \\starcrew\\Http\\Controllers\\RoleController -->
<g id="node15" class="node"><title>\\starcrew\\Http\\Controllers\\RoleController</title>
<polygon fill="none" stroke="black" points="1009.54,-2304 898.536,-2304 898.536,-2268 1009.54,-2268 1009.54,-2304"/>
<text text-anchor="middle" x="954.036" y="-2283.2" font-family="Courier,monospace" font-size="11.00">RoleController</text>
</g>
<!-- \\starcrew\\Http\\Controllers\\RoleController&#45;&gt;\\starcrew\\Http\\Controllers\\Controller -->
<g id="edge26" class="edge"><title>\\starcrew\\Http\\Controllers\\RoleController&#45;&gt;\\starcrew\\Http\\Controllers\\Controller</title>
<path fill="none" stroke="black" d="M898.293,-2300.79C820.636,-2321.77 679.558,-2359.89 604.112,-2380.27"/>
<polygon fill="none" stroke="black" points="603.1,-2376.92 594.359,-2382.91 604.926,-2383.68 603.1,-2376.92"/>
</g>
<!-- \\starcrew\\Http\\Controllers\\UserController -->
<g id="node16" class="node"><title>\\starcrew\\Http\\Controllers\\UserController</title>
<polygon fill="none" stroke="black" points="1009.54,-2250 898.536,-2250 898.536,-2214 1009.54,-2214 1009.54,-2250"/>
<text text-anchor="middle" x="954.036" y="-2229.2" font-family="Courier,monospace" font-size="11.00">UserController</text>
</g>
<!-- \\starcrew\\Http\\Controllers\\UserController&#45;&gt;\\starcrew\\Http\\Controllers\\Controller -->
<g id="edge27" class="edge"><title>\\starcrew\\Http\\Controllers\\UserController&#45;&gt;\\starcrew\\Http\\Controllers\\Controller</title>
<path fill="none" stroke="black" d="M898.061,-2246.66C885.464,-2250.37 872.203,-2254.58 860.036,-2259 765.309,-2293.43 658.33,-2343.08 599.057,-2371.59"/>
<polygon fill="none" stroke="black" points="597.448,-2368.48 589.963,-2375.97 600.49,-2374.78 597.448,-2368.48"/>
</g>
<!-- \\starcrew\\Http\\Requests\\Request -->
<g id="node17" class="node"><title>\\starcrew\\Http\\Requests\\Request</title>
<polygon fill="none" stroke="black" points="996.036,-1928 912.036,-1928 912.036,-1892 996.036,-1892 996.036,-1928"/>
<text text-anchor="start" x="920.036" y="-1913.2" font-family="Courier,monospace" font-size="11.00">«abstract»</text>
<text text-anchor="start" x="930.036" y="-1901.2" font-family="Courier,monospace" font-size="11.00">Request</text>
</g>
<!-- \\Illuminate\\Foundation\\Http\\FormRequest -->
<g id="node44" class="node"><title>\\Illuminate\\Foundation\\Http\\FormRequest</title>
<ellipse fill="none" stroke="black" cx="552.307" cy="-558" rx="162.471" ry="18"/>
<text text-anchor="middle" x="552.307" y="-554.3" font-family="Times New Roman,serif" font-size="14.00" fill="gray">\Illuminate\Foundation\Http\FormRequest</text>
</g>
<!-- \\starcrew\\Http\\Requests\\Request&#45;&gt;\\Illuminate\\Foundation\\Http\\FormRequest -->
<g id="edge21" class="edge"><title>\\starcrew\\Http\\Requests\\Request&#45;&gt;\\Illuminate\\Foundation\\Http\\FormRequest</title>
<path fill="none" stroke="black" d="M912.011,-1910.84C893.292,-1908.9 872.555,-1903.05 860.036,-1888 767.345,-1776.56 895.322,-690.61 796.036,-585 758.871,-545.468 698.209,-538.711 646.828,-541.841"/>
<polygon fill="none" stroke="black" points="646.4,-538.363 636.686,-542.592 646.917,-545.344 646.4,-538.363"/>
</g>
<!-- \\starcrew\\Http\\Kernel -->
<g id="node18" class="node"><title>\\starcrew\\Http\\Kernel</title>
<polygon fill="none" stroke="black" points="982.536,-1874 925.536,-1874 925.536,-1838 982.536,-1838 982.536,-1874"/>
<text text-anchor="middle" x="954.036" y="-1853.2" font-family="Courier,monospace" font-size="11.00">Kernel</text>
</g>
<!-- \\Illuminate\\Foundation\\Http\\Kernel -->
<g id="node39" class="node"><title>\\Illuminate\\Foundation\\Http\\Kernel</title>
<ellipse fill="none" stroke="black" cx="552.307" cy="-504" rx="135.676" ry="18"/>
<text text-anchor="middle" x="552.307" y="-500.3" font-family="Times New Roman,serif" font-size="14.00" fill="gray">\Illuminate\Foundation\Http\Kernel</text>
</g>
<!-- \\starcrew\\Http\\Kernel&#45;&gt;\\Illuminate\\Foundation\\Http\\Kernel -->
<g id="edge9" class="edge"><title>\\starcrew\\Http\\Kernel&#45;&gt;\\Illuminate\\Foundation\\Http\\Kernel</title>
<path fill="none" stroke="black" d="M925.502,-1855.13C904.008,-1852.84 875.312,-1845.93 860.036,-1826 772.384,-1711.67 894.73,-635.948 796.036,-531 757.218,-489.723 692.783,-484.183 640.054,-488.317"/>
<polygon fill="none" stroke="black" points="639.657,-484.839 630.015,-489.23 640.291,-491.81 639.657,-484.839"/>
</g>
<!-- \\starcrew\\Console\\Commands\\Inspire -->
<g id="node19" class="node"><title>\\starcrew\\Console\\Commands\\Inspire</title>
<polygon fill="none" stroke="black" points="986.036,-1524 922.036,-1524 922.036,-1488 986.036,-1488 986.036,-1524"/>
<text text-anchor="middle" x="954.036" y="-1503.2" font-family="Courier,monospace" font-size="11.00">Inspire</text>
</g>
<!-- \\Illuminate\\Console\\Command -->
<g id="node46" class="node"><title>\\Illuminate\\Console\\Command</title>
<ellipse fill="none" stroke="black" cx="552.307" cy="-234" rx="120.779" ry="18"/>
<text text-anchor="middle" x="552.307" y="-230.3" font-family="Times New Roman,serif" font-size="14.00" fill="gray">\Illuminate\Console\Command</text>
</g>
<!-- \\starcrew\\Console\\Commands\\Inspire&#45;&gt;\\Illuminate\\Console\\Command -->
<g id="edge23" class="edge"><title>\\starcrew\\Console\\Commands\\Inspire&#45;&gt;\\Illuminate\\Console\\Command</title>
<path fill="none" stroke="black" d="M921.774,-1507.51C900.959,-1506.67 874.811,-1501.71 860.036,-1484 772.854,-1379.52 889.4,-359.992 796.036,-261 756.202,-218.765 689.539,-213.986 636.144,-218.677"/>
<polygon fill="none" stroke="black" points="635.597,-215.215 625.996,-219.695 636.295,-222.18 635.597,-215.215"/>
</g>
<!-- \\starcrew\\Console\\Kernel -->
<g id="node20" class="node"><title>\\starcrew\\Console\\Kernel</title>
<polygon fill="none" stroke="black" points="982.536,-1470 925.536,-1470 925.536,-1434 982.536,-1434 982.536,-1470"/>
<text text-anchor="middle" x="954.036" y="-1449.2" font-family="Courier,monospace" font-size="11.00">Kernel</text>
</g>
<!-- \\Illuminate\\Foundation\\Console\\Kernel -->
<g id="node34" class="node"><title>\\Illuminate\\Foundation\\Console\\Kernel</title>
<ellipse fill="none" stroke="black" cx="552.307" cy="-180" rx="150.273" ry="18"/>
<text text-anchor="middle" x="552.307" y="-176.3" font-family="Times New Roman,serif" font-size="14.00" fill="gray">\Illuminate\Foundation\Console\Kernel</text>
</g>
<!-- \\starcrew\\Console\\Kernel&#45;&gt;\\Illuminate\\Foundation\\Console\\Kernel -->
<g id="edge2" class="edge"><title>\\starcrew\\Console\\Kernel&#45;&gt;\\Illuminate\\Foundation\\Console\\Kernel</title>
<path fill="none" stroke="black" d="M925.519,-1451.11C904.036,-1448.82 875.344,-1441.9 860.036,-1422 777.611,-1314.85 888.808,-305.33 796.036,-207 758.187,-166.883 696.133,-160.564 644.244,-164.053"/>
<polygon fill="none" stroke="black" points="643.699,-160.585 634.012,-164.874 644.26,-167.563 643.699,-160.585"/>
</g>
<!-- \\starcrew\\Jobs\\Job -->
<g id="node21" class="node"><title>\\starcrew\\Jobs\\Job</title>
<polygon fill="none" stroke="black" points="996.036,-1390 912.036,-1390 912.036,-1354 996.036,-1354 996.036,-1390"/>
<text text-anchor="start" x="920.036" y="-1375.2" font-family="Courier,monospace" font-size="11.00">«abstract»</text>
<text text-anchor="start" x="943.536" y="-1363.2" font-family="Courier,monospace" font-size="11.00">Job</text>
</g>
<!-- \\starcrew\\Events\\Event -->
<g id="node22" class="node"><title>\\starcrew\\Events\\Event</title>
<polygon fill="none" stroke="black" points="996.036,-1230 912.036,-1230 912.036,-1194 996.036,-1194 996.036,-1230"/>
<text text-anchor="start" x="920.036" y="-1215.2" font-family="Courier,monospace" font-size="11.00">«abstract»</text>
<text text-anchor="start" x="937.036" y="-1203.2" font-family="Courier,monospace" font-size="11.00">Event</text>
</g>
<!-- \\starcrew\\Exceptions\\Handler -->
<g id="node23" class="node"><title>\\starcrew\\Exceptions\\Handler</title>
<polygon fill="none" stroke="black" points="986.036,-1310 922.036,-1310 922.036,-1274 986.036,-1274 986.036,-1310"/>
<text text-anchor="middle" x="954.036" y="-1289.2" font-family="Courier,monospace" font-size="11.00">Handler</text>
</g>
<!-- \\Illuminate\\Foundation\\Exceptions\\Handler -->
<g id="node43" class="node"><title>\\Illuminate\\Foundation\\Exceptions\\Handler</title>
<ellipse fill="none" stroke="black" cx="552.307" cy="-126" rx="165.171" ry="18"/>
<text text-anchor="middle" x="552.307" y="-122.3" font-family="Times New Roman,serif" font-size="14.00" fill="gray">\Illuminate\Foundation\Exceptions\Handler</text>
</g>
<!-- \\starcrew\\Exceptions\\Handler&#45;&gt;\\Illuminate\\Foundation\\Exceptions\\Handler -->
<g id="edge19" class="edge"><title>\\starcrew\\Exceptions\\Handler&#45;&gt;\\Illuminate\\Foundation\\Exceptions\\Handler</title>
<path fill="none" stroke="black" d="M922.005,-1290.68C901.016,-1288 874.564,-1280.79 860.036,-1262 709.036,-1066.71 965.89,-332.128 796.036,-153 759.043,-113.988 699.149,-106.998 648.114,-109.879"/>
<polygon fill="none" stroke="black" points="647.768,-106.394 638.035,-110.58 648.254,-113.377 647.768,-106.394"/>
</g>
<!-- \\starcrew\\User -->
<g id="node24" class="node"><title>\\starcrew\\User</title>
<polygon fill="none" stroke="black" points="981.036,-1176 927.036,-1176 927.036,-1140 981.036,-1140 981.036,-1176"/>
<text text-anchor="middle" x="954.036" y="-1155.2" font-family="Courier,monospace" font-size="11.00">User</text>
</g>
<!-- \\Illuminate\\Foundation\\Auth\\User -->
<g id="node38" class="node"><title>\\Illuminate\\Foundation\\Auth\\User</title>
<ellipse fill="none" stroke="black" cx="552.307" cy="-72" rx="131.077" ry="18"/>
<text text-anchor="middle" x="552.307" y="-68.3" font-family="Times New Roman,serif" font-size="14.00" fill="gray">\Illuminate\Foundation\Auth\User</text>
</g>
<!-- \\starcrew\\User&#45;&gt;\\Illuminate\\Foundation\\Auth\\User -->
<g id="edge7" class="edge"><title>\\starcrew\\User&#45;&gt;\\Illuminate\\Foundation\\Auth\\User</title>
<path fill="none" stroke="black" d="M926.941,-1158.1C905.407,-1156.65 875.902,-1150.82 860.036,-1131 716.435,-951.627 954.494,-265.394 796.036,-99 756.891,-57.895 692.309,-52.3972 639.599,-56.5066"/>
<polygon fill="none" stroke="black" points="639.21,-53.0274 629.566,-57.4139 639.84,-59.999 639.21,-53.0274"/>
</g>
<!-- \\starcrew\\UserLanguage -->
<g id="node25" class="node"><title>\\starcrew\\UserLanguage</title>
<polygon fill="none" stroke="black" points="1003.04,-798 905.036,-798 905.036,-762 1003.04,-762 1003.04,-798"/>
<text text-anchor="middle" x="954.036" y="-777.2" font-family="Courier,monospace" font-size="11.00">UserLanguage</text>
</g>
<!-- \\Illuminate\\Database\\Eloquent\\Model -->
<g id="node41" class="node"><title>\\Illuminate\\Database\\Eloquent\\Model</title>
<ellipse fill="none" stroke="black" cx="552.307" cy="-18" rx="143.775" ry="18"/>
<text text-anchor="middle" x="552.307" y="-14.3" font-family="Times New Roman,serif" font-size="14.00" fill="gray">\Illuminate\Database\Eloquent\Model</text>
</g>
<!-- \\starcrew\\UserLanguage&#45;&gt;\\Illuminate\\Database\\Eloquent\\Model -->
<g id="edge12" class="edge"><title>\\starcrew\\UserLanguage&#45;&gt;\\Illuminate\\Database\\Eloquent\\Model</title>
<path fill="none" stroke="black" d="M904.886,-776.916C888.254,-773.345 871.048,-766.364 860.036,-753 759.577,-631.082 906.583,-157.851 796.036,-45 757.788,-5.95538 696.515,0.614096 645.102,-2.48636"/>
<polygon fill="none" stroke="black" points="644.678,0.992096 634.961,-3.22863 645.189,-5.98923 644.678,0.992096"/>
</g>
<!-- \\starcrew\\Goal -->
<g id="node26" class="node"><title>\\starcrew\\Goal</title>
<polygon fill="none" stroke="black" points="981.036,-744 927.036,-744 927.036,-708 981.036,-708 981.036,-744"/>
<text text-anchor="middle" x="954.036" y="-723.2" font-family="Courier,monospace" font-size="11.00">Goal</text>
</g>
<!-- \\starcrew\\Goal&#45;&gt;\\Illuminate\\Database\\Eloquent\\Model -->
<g id="edge13" class="edge"><title>\\starcrew\\Goal&#45;&gt;\\Illuminate\\Database\\Eloquent\\Model</title>
<path fill="none" stroke="black" d="M951.627,-707.955C943.551,-609.414 899.79,-137.384 796.036,-45 758.638,-11.7004 704.087,-3.37854 656.169,-4.07557"/>
<polygon fill="none" stroke="black" points="655.953,-0.580131 646.053,-4.35546 656.146,-7.57745 655.953,-0.580131"/>
</g>
<!-- \\starcrew\\Mission -->
<g id="node27" class="node"><title>\\starcrew\\Mission</title>
<polygon fill="none" stroke="black" points="986.036,-1122 922.036,-1122 922.036,-1086 986.036,-1086 986.036,-1122"/>
<text text-anchor="middle" x="954.036" y="-1101.2" font-family="Courier,monospace" font-size="11.00">Mission</text>
</g>
<!-- \\starcrew\\Mission&#45;&gt;\\Illuminate\\Database\\Eloquent\\Model -->
<g id="edge14" class="edge"><title>\\starcrew\\Mission&#45;&gt;\\Illuminate\\Database\\Eloquent\\Model</title>
<path fill="none" stroke="black" d="M921.667,-1103.67C900.804,-1101.64 874.641,-1095.24 860.036,-1077 716.435,-897.627 954.494,-211.394 796.036,-45 757.795,-4.84401 695.278,1.32998 643.269,-2.23765"/>
<polygon fill="none" stroke="black" points="642.7,1.22764 633.017,-3.07389 643.269,-5.74919 642.7,1.22764"/>
</g>
<!-- \\starcrew\\GoalType -->
<g id="node28" class="node"><title>\\starcrew\\GoalType</title>
<polygon fill="none" stroke="black" points="989.536,-1068 918.536,-1068 918.536,-1032 989.536,-1032 989.536,-1068"/>
<text text-anchor="middle" x="954.036" y="-1047.2" font-family="Courier,monospace" font-size="11.00">GoalType</text>
</g>
<!-- \\starcrew\\GoalType&#45;&gt;\\Illuminate\\Database\\Eloquent\\Model -->
<g id="edge17" class="edge"><title>\\starcrew\\GoalType&#45;&gt;\\Illuminate\\Database\\Eloquent\\Model</title>
<path fill="none" stroke="black" d="M918.498,-1049.31C898.226,-1046.94 873.935,-1040.3 860.036,-1023 723.629,-853.208 946.504,-202.465 796.036,-45 757.795,-4.98113 695.435,1.24389 643.499,-2.2655"/>
<polygon fill="none" stroke="black" points="642.948,1.20153 633.261,-3.09004 643.51,-5.77588 642.948,1.20153"/>
</g>
<!-- \\starcrew\\MissionLanguage -->
<g id="node29" class="node"><title>\\starcrew\\MissionLanguage</title>
<polygon fill="none" stroke="black" points="1013.04,-1014 895.036,-1014 895.036,-978 1013.04,-978 1013.04,-1014"/>
<text text-anchor="middle" x="954.036" y="-993.2" font-family="Courier,monospace" font-size="11.00">MissionLanguage</text>
</g>
<!-- \\starcrew\\MissionLanguage&#45;&gt;\\Illuminate\\Database\\Eloquent\\Model -->
<g id="edge18" class="edge"><title>\\starcrew\\MissionLanguage&#45;&gt;\\Illuminate\\Database\\Eloquent\\Model</title>
<path fill="none" stroke="black" d="M895.026,-990.556C881.652,-986.519 868.796,-979.862 860.036,-969 730.823,-808.787 938.516,-193.538 796.036,-45 757.788,-5.12571 695.584,1.15001 643.724,-2.29929"/>
<polygon fill="none" stroke="black" points="643.191,1.1695 633.5,-3.11175 643.746,-5.8085 643.191,1.1695"/>
</g>
<!-- \\starcrew\\Language -->
<g id="node30" class="node"><title>\\starcrew\\Language</title>
<polygon fill="none" stroke="black" points="989.536,-960 918.536,-960 918.536,-924 989.536,-924 989.536,-960"/>
<text text-anchor="middle" x="954.036" y="-939.2" font-family="Courier,monospace" font-size="11.00">Language</text>
</g>
<!-- \\starcrew\\Language&#45;&gt;\\Illuminate\\Database\\Eloquent\\Model -->
<g id="edge20" class="edge"><title>\\starcrew\\Language&#45;&gt;\\Illuminate\\Database\\Eloquent\\Model</title>
<path fill="none" stroke="black" d="M918.086,-941.215C897.927,-938.783 873.899,-932.114 860.036,-915 738.015,-764.365 930.529,-184.613 796.036,-45 757.771,-5.27917 695.724,1.04691 643.942,-2.34011"/>
<polygon fill="none" stroke="black" points="643.429,1.13049 633.733,-3.14 643.976,-5.84813 643.429,1.13049"/>
</g>
<!-- \\starcrew\\CrewSlot -->
<g id="node31" class="node"><title>\\starcrew\\CrewSlot</title>
<polygon fill="none" stroke="black" points="989.536,-906 918.536,-906 918.536,-870 989.536,-870 989.536,-906"/>
<text text-anchor="middle" x="954.036" y="-885.2" font-family="Courier,monospace" font-size="11.00">CrewSlot</text>
</g>
<!-- \\starcrew\\CrewSlot&#45;&gt;\\Illuminate\\Database\\Eloquent\\Model -->
<g id="edge24" class="edge"><title>\\starcrew\\CrewSlot&#45;&gt;\\Illuminate\\Database\\Eloquent\\Model</title>
<path fill="none" stroke="black" d="M918.115,-887.191C897.967,-884.75 873.94,-878.08 860.036,-861 745.205,-719.94 922.544,-175.689 796.036,-45 757.745,-5.44329 695.853,0.932782 644.152,-2.38933"/>
<polygon fill="none" stroke="black" points="643.659,1.08311 633.958,-3.1761 644.198,-5.89614 643.659,1.08311"/>
</g>
<!-- \\starcrew\\Role -->
<g id="node32" class="node"><title>\\starcrew\\Role</title>
<polygon fill="none" stroke="black" points="981.036,-852 927.036,-852 927.036,-816 981.036,-816 981.036,-852"/>
<text text-anchor="middle" x="954.036" y="-831.2" font-family="Courier,monospace" font-size="11.00">Role</text>
</g>
<!-- \\starcrew\\Role&#45;&gt;\\Illuminate\\Database\\Eloquent\\Model -->
<g id="edge28" class="edge"><title>\\starcrew\\Role&#45;&gt;\\Illuminate\\Database\\Eloquent\\Model</title>
<path fill="none" stroke="black" d="M926.623,-833.983C905.194,-832.429 876.011,-826.514 860.036,-807 752.392,-675.513 914.562,-166.769 796.036,-45 757.774,-5.69158 696.192,0.781961 644.633,-2.43115"/>
<polygon fill="none" stroke="black" points="644.174,1.0443 634.465,-3.19607 644.699,-5.93598 644.174,1.0443"/>
</g>
</g>
</svg>
